# xmcd
#
# Track frame offsets:
# 150
# 19548
# 33380
# 48847
# 61881
# 79147
# 93650
# 109171
# 124500
# 137306
# 150474
# 165759
# 178462
# 193950
#
# Disc length: 2765 seconds
#
#
# Revision: 0
# Processed by: cddbd v1.5.2PL0 Copyright (c) Steve Scherf et al.
# Submitted via: FreeRIP 2.90 
#
DISCID=ab0acb0e
DTITLE=Iran e Junior - 100 Por Cento Viola
DYEAR=2012
DGENRE=Sertaneja
TTITLE0=Domingo na roca
TTITLE1=Nois enverga mais nao quebra
TTITLE2=Alguem pra cuidar de mim
TTITLE3=To metendo pra dentro
TTITLE4=Cerveja gelada
TTITLE5=To no pantanal
TTITLE6=Escravos do amor
TTITLE7=Nem que volte o cheque
TTITLE8=Menina linda
TTITLE9=Rei do bailao
TTITLE10=Moreninha
TTITLE11=Zonao
TTITLE12=To indo te buscar
TTITLE13=Imaculada
EXTD=
EXTT0=
EXTT1=
EXTT2=
EXTT3=
EXTT4=
EXTT5=
EXTT6=
EXTT7=
EXTT8=
EXTT9=
EXTT10=
EXTT11=
EXTT12=
EXTT13=
PLAYORDER=
